<svg width="227" height="227" viewBox="0 0 227 227" fill="none" xmlns="http://www.w3.org/2000/svg">
<path d="M31.7437 73.7269C27.8435 73.7269 24.5344 75.0836 21.8142 77.7968C19.0941 80.5101 17.7336 83.7659 17.7336 87.5659V145.911C17.7336 149.806 19.0936 153.104 21.8142 155.818C24.5344 158.531 27.8435 159.888 31.7437 159.888C35.641 159.888 38.93 158.531 41.6081 155.818C44.2807 153.104 45.6208 149.806 45.6208 145.911V87.5659C45.6208 83.7655 44.2607 80.5101 41.5401 77.7968C38.8195 75.0836 35.5534 73.7269 31.7437 73.7269Z" fill="white"/>
<path d="M144.38 21.3504L154.039 3.57833C154.673 2.40174 154.447 1.4995 153.36 0.865072C152.18 0.318012 151.274 0.595216 150.64 1.67709L140.847 19.5913C132.229 15.7908 123.114 13.8871 113.503 13.8871C103.889 13.8871 94.774 15.7912 86.1596 19.5913L76.3656 1.67709C75.7292 0.595216 74.8226 0.320462 73.6455 0.865072C72.5559 1.50236 72.3304 2.40174 72.9669 3.57833L82.6258 21.3504C72.8318 26.3323 65.0315 33.2706 59.2277 42.1803C53.4239 51.095 50.5208 60.8367 50.5208 71.4227H176.348C176.348 60.8392 173.445 51.097 167.641 42.1803C161.837 33.2706 154.082 26.3323 144.38 21.3504ZM88.5393 47.2002C87.4947 48.2445 86.2472 48.7643 84.7971 48.7643C83.3441 48.7643 82.1219 48.2445 81.1249 47.2002C80.1279 46.1608 79.6293 44.9214 79.6293 43.47C79.6293 42.0236 80.1279 40.7817 81.1249 39.7398C82.1219 38.7004 83.347 38.1807 84.7971 38.1807C86.2472 38.1807 87.4947 38.7004 88.5393 39.7398C89.5813 40.7841 90.1048 42.0236 90.1048 43.47C90.1019 44.9189 89.5789 46.1608 88.5393 47.2002ZM145.876 47.2002C144.876 48.2445 143.651 48.7643 142.204 48.7643C140.75 48.7643 139.503 48.2445 138.461 47.2002C137.417 46.1608 136.896 44.9214 136.896 43.47C136.896 42.0236 137.417 40.7817 138.461 39.7398C139.503 38.7004 140.75 38.1807 142.204 38.1807C143.654 38.1807 144.876 38.7004 145.876 39.7398C146.873 40.7841 147.371 42.0236 147.371 43.47C147.371 44.9189 146.873 46.1608 145.876 47.2002Z" fill="white"/>
<path d="M51.0611 166.671C51.0611 170.836 52.5112 174.362 55.4119 177.255C58.315 180.148 61.8496 181.595 66.0224 181.595H76.0894L76.2273 212.399C76.2273 216.289 77.5874 219.592 80.3075 222.306C83.0277 225.02 86.2943 226.376 90.1015 226.376C93.9992 226.376 97.3104 225.02 100.031 222.306C102.752 219.592 104.112 216.29 104.112 212.399V181.598H122.883V212.399C122.883 216.289 124.243 219.592 126.964 222.306C129.684 225.02 132.993 226.376 136.893 226.376C140.791 226.376 144.102 225.02 146.823 222.306C149.543 219.592 150.903 216.29 150.903 212.399V181.598H161.106C165.186 181.598 168.675 180.151 171.581 177.258C174.481 174.364 175.932 170.839 175.932 166.674V76.3026H51.0611V166.671Z" fill="white"/>
<path d="M195.257 73.7269C191.447 73.7269 188.183 75.0636 185.462 77.7294C182.742 80.4002 181.382 83.681 181.382 87.5659V145.911C181.382 149.806 182.742 153.104 185.462 155.818C188.183 158.531 191.449 159.888 195.257 159.888C199.154 159.888 202.466 158.531 205.186 155.818C207.907 153.104 209.266 149.806 209.266 145.911V87.5659C209.266 83.6806 207.907 80.4002 205.186 77.7294C202.466 75.0636 199.154 73.7269 195.257 73.7269Z" fill="white"/>
</svg>
