<svg width="248" height="249" viewBox="0 0 248 249" fill="none" xmlns="http://www.w3.org/2000/svg">
<path fill-rule="evenodd" clip-rule="evenodd" d="M35.8637 36.3022C20.7522 51.3995 20.7522 75.6985 20.7522 124.296C20.7522 172.894 20.7522 197.194 35.8637 212.29C50.9751 227.388 75.2966 227.388 123.94 227.388C172.582 227.388 196.905 227.388 212.015 212.29C227.127 197.194 227.127 172.894 227.127 124.296C227.127 75.6985 227.127 51.3995 212.015 36.3022C196.905 21.2047 172.582 21.2047 123.94 21.2047C75.2966 21.2047 50.9751 21.2047 35.8637 36.3022ZM66.4008 98.7284C69.1371 95.4479 74.0171 95.0047 77.3006 97.7384L80.1529 100.113C86.3953 105.31 91.7094 109.734 95.3872 113.803C99.2935 118.124 102.342 123.094 102.342 129.451C102.342 135.808 99.2935 140.778 95.3872 145.099C91.7094 149.168 86.3953 153.593 80.1529 158.789L77.3006 161.164C74.0171 163.898 69.1371 163.455 66.4008 160.174C63.6646 156.893 64.1082 152.018 67.3917 149.285L69.8104 147.27C76.6061 141.613 81.0496 137.889 83.8997 134.735C86.6061 131.742 86.8638 130.338 86.8638 129.451C86.8638 128.564 86.6061 127.161 83.8997 124.166C81.0496 121.013 76.6061 117.289 69.8106 111.632L67.3917 109.618C64.1082 106.884 63.6646 102.009 66.4008 98.7284ZM183.273 155.224C183.273 159.494 179.807 162.956 175.533 162.956H123.94C119.666 162.956 116.201 159.494 116.201 155.224C116.201 150.954 119.666 147.492 123.94 147.492H175.533C179.807 147.492 183.273 150.954 183.273 155.224Z" fill="white"/>
</svg>
