<svg width="220" height="221" viewBox="0 0 220 221" fill="none" xmlns="http://www.w3.org/2000/svg">
<rect width="218.991" height="219.077" transform="translate(0.680359 0.94519)"/>
<ellipse cx="110.735" cy="111.043" rx="7.26246" ry="7.26532" fill="white"/>
<path d="M165.737 81.3881C171.612 76.0448 175.733 69.0478 177.558 61.3172C179.383 53.5867 178.826 45.4847 175.961 38.0767C173.096 30.6687 168.057 24.3015 161.506 19.8126C154.956 15.3237 147.201 12.9233 139.261 12.9269H81.0912C73.1512 12.9233 65.396 15.3237 58.8455 19.8126C52.295 24.3015 47.2559 30.6687 44.3909 38.0767C41.526 45.4847 40.9692 53.5867 42.794 61.3172C44.6188 69.0478 48.7396 76.0448 54.6145 81.3881C50.56 85.0724 47.3203 89.5641 45.1034 94.5748C42.8864 99.5855 41.7412 105.005 41.7412 110.484C41.7413 115.964 42.8866 121.383 45.1036 126.394C47.3206 131.404 50.5604 135.896 54.6149 139.58C49.7728 143.99 46.1074 149.539 43.9514 155.725C41.7953 161.91 41.2166 168.536 42.2678 175.002C43.319 181.468 45.9669 187.569 49.9713 192.752C53.9757 197.935 59.21 202.036 65.1995 204.684C71.1891 207.331 77.7445 208.441 84.2714 207.913C90.7982 207.385 97.0901 205.235 102.576 201.659C108.063 198.083 112.57 193.193 115.69 187.434C118.809 181.674 120.442 175.227 120.441 168.676V145.046C128.888 149.655 138.73 151.008 148.106 148.847C157.482 146.687 165.742 141.163 171.321 133.322C176.901 125.48 179.414 115.865 178.385 106.294C177.356 96.7242 172.856 87.8633 165.737 81.3881ZM158.08 52.2924C158.075 57.2809 156.092 62.0638 152.568 65.5927C149.043 69.1217 144.264 71.1089 139.277 71.1189L139.261 71.1185L139.228 71.1193L120.441 71.1189V33.4654H139.261C144.25 33.471 149.034 35.4564 152.562 38.9859C156.09 42.5154 158.075 47.3009 158.08 52.2924ZM62.2717 52.2924C62.2773 47.3009 64.2619 42.5154 67.79 38.9859C71.3181 35.4564 76.1017 33.471 81.0912 33.4654H99.9108V71.1185H81.0912L81.075 71.1189C76.0883 71.109 71.309 69.1218 67.7844 65.5928C64.2598 62.0639 62.2774 57.281 62.2717 52.2924ZM62.2717 110.484C62.2773 105.495 64.2597 100.712 67.7843 97.1834C71.3089 93.6544 76.0883 91.6673 81.075 91.6574L81.0912 91.6578L99.9108 91.6573V129.31L81.0912 129.311C76.1017 129.305 71.3181 127.32 67.79 123.79C64.2619 120.261 62.2773 115.475 62.2717 110.484ZM99.9108 168.676C99.9109 172.4 98.8072 176.04 96.7393 179.136C94.6714 182.232 91.7323 184.645 88.2934 186.07C84.8546 187.495 81.0706 187.868 77.42 187.142C73.7693 186.415 70.4159 184.622 67.7839 181.989C65.1519 179.356 63.3595 176.002 62.6333 172.349C61.9071 168.697 62.2798 164.912 63.7042 161.472C65.1286 158.032 67.5407 155.091 70.6356 153.022C73.7305 150.954 77.369 149.849 81.0912 149.849L99.9108 149.849V168.676ZM139.261 129.311C134.274 129.308 129.492 127.326 125.966 123.799C122.439 120.272 120.456 115.489 120.451 110.501C120.447 105.512 122.422 100.726 125.942 97.193C129.463 93.66 134.241 91.6692 139.228 91.6578H139.261L139.277 91.6574C144.265 91.665 149.045 93.653 152.569 97.1846C156.092 100.716 158.07 105.503 158.068 110.492C158.066 115.482 156.084 120.267 152.557 123.795C149.031 127.324 144.248 129.308 139.261 129.311Z" fill="white"/>
</svg>
