<svg id="emCIKQ4LUiZ1" xmlns="http://www.w3.org/2000/svg" viewBox="0 0 209 90" shape-rendering="geometricPrecision"
     text-rendering="geometricPrecision"><g transform="translate(27.996147 0.55906)"><line id="emCIKQ4LUiZ3" x1="0" y1="-1.5" x2="1" y2="-1.5" transform="matrix(1 0-.000042-1 120 43)" fill="none" stroke="#41b0ff" stroke-width="3"/><line id="emCIKQ4LUiZ4" x1="0" y1="-1.5" x2="1" y2="-1.5" transform="matrix(-1 0.000005 0.000042-1 122.000063 42.9998)" fill="none" stroke="#41b0ff" stroke-width="3"/><line id="emCIKQ4LUiZ5" x1="0" y1="-1.5" x2="1" y2="-1.5" transform="matrix(1 0-.002568-.999997 32 43)" fill="none" stroke="#41b0ff" stroke-width="3"/><line id="emCIKQ4LUiZ6" x1="0" y1="-1.5" x2="1" y2="-1.5" transform="matrix(-1 0 0.002568-.999997 32.003847 43)" fill="none" stroke="#41b0ff" stroke-width="3"/><path d="M97.2797,78.7618l2.9933,2.9408c.092.0891.093.1782.003.2673L98.3928,83.845c-.0395.0398-.0864.0713-.1382.0929-.0517.0215-.1073.0326-.1633.0326-.0561,0-.1116-.0111-.1634-.0326s-.0987-.0531-.1382-.0929l-5.0963-5.0794c-.0918-.0941-.2035-.1411-.335-.1411l-3.7003-.0038c-.1315,0-.2432-.0458-.335-.1373l-6.6412-6.6168c-.1092-.1089-.1638-.2413-.1638-.3972l.0224-3.9062c-.0001-.0284-.0086-.056-.0243-.0796s-.0381-.0421-.0642-.0532c-.0262-.0111-.055-.0142-.083-.0091-.0279.0051-.0537.0183-.0742.0379l-7.799,7.6712c-.0769.0768-.17.1164-.2791.1189-4.353.0519-8.6849.0507-12.9957-.0037-.479-.0075-.8885-.1783-1.2285-.5125-2.6952-2.6635-5.3842-5.3357-8.0669-8.0165-.0745-.0743-.1117-.1646-.1117-.271v-5.306c0-.1312.0471-.2439.1414-.3379l1.3923-1.3924c.0227-.0229.0382-.0519.0445-.0835s.003-.0643-.0094-.0941c-.0123-.0297-.0332-.0552-.0599-.0731-.0268-.018-.0583-.0277-.0906-.0278h-12.24c-.1315,0-.2432-.0458-.335-.1374l-9.4183-9.3013c-.1017-.099-.1501-.219-.1452-.3601.1167-3.5448.1291-6.587.0373-9.1268-.0484-1.3813,2.576-3.416,3.5402-4.4111.0968-.1015.1439-.2228.1414-.3639l-.1228-6.7727c-.0025-.1064.0323-.1992.1042-.2784c4.724-5.2095,10.0064-10.107,14.9948-15.0789.7817-.7797,14.0492-.4084,16.0743-.4084.1455.0002.2859-.0572.3909-.1597l3.73-3.66477c.1067-.10397.2358-.15595.3872-.15595c5.8569.00247,11.7064.00247,17.5484,0c.9977,0,1.4444.07054,2.1741.81687.9505.97035,1.9134,1.92705,2.8887,2.87025.0918.0866.201.1299.3276.1299c2.1517-.0223,5.8036-.3044,6.5518.4419c7.9912,7.946,15.9692,15.9043,23.9332,23.8751.096.0965.145.2129.145.349v19.0147c0,.1262-.045.2327-.134.3193L100.839,78.6133c-.09.0891-.198.1325-.324.13l-3.1832-.0966c-.0138-.0012-.0278.0019-.0398.0089s-.0216.0175-.0273.0302-.0074.0268-.0047.0404.0096.0261.0197.0356Zm-10.092-42.032l.0484,9.3421c0,.1015-.0521.1535-.1564.1559l-7.1847.1226c-.1489.0024-.2767.0569-.3834.1633l-8.8152,8.8297c-.1116.1114-.2457.1671-.402.1671h-9.1651c-.1266,0-.2358.0446-.3276.1337-1.9705,1.9209-3.9199,3.8628-5.8483,5.8258-1.2731,1.2959-1.0497,1.8194-.9343,3.5089.0099.1262.0583.2339.1451.323c1.0163,1.0174,6.2876,6.7207,7.2852,6.7244c3.07.0074,6.1436.0099,9.221.0074c1.4146,0,2.1926-.6757,2.9557-1.7303.0919-.1287.0819-.2487-.0297-.3601l-2.3192-2.317c-.1043-.1015-.2284-.151-.3723-.1485-.8078.0074-4.1209.2079-4.6458-.1263-1.3067-.8243-2.6059-2.4246-3.7711-3.5125-.0237-.022-.0428-.0486-.0559-.0781-.0132-.0296-.0201-.0615-.0205-.0938s.0059-.0644.0184-.0942.031-.0568.0543-.0792l2.081-2.0274c.1042-.1015.2109-.1027.3201-.0037c1.0647.9617,2.3415,2.7997,3.6296,2.7737c1.1267-.0248,2.2547-.005,3.3838.0594c1.2769.0705,2.9298,2.2724,4.1247,3.3566.0918.0842.1824.0817.2718-.0074l3.2312-3.2267c.1167-.1163.2581-.1745.4244-.1745l16.2865-.0111c.1539,0,.2842-.0545.3909-.1634l5.1367-5.1241c.095-.0916.142-.2042.142-.3379v-4.3962c0-.156.055-.2884.164-.3973l5.345-5.3283c.105-.104.21-.1052.317-.0037l2.07,2.0087c.089.0842.09.1684.003.2525l-4.549,4.53c-.082.0792-.121.177-.119.2933l.037,4.5077c.003.1337-.044.2475-.141.3416l-3.682,3.6277c-.129.1287-.101.1931.082.1931h8.927c.104,0,.194-.0372.268-.1114c2.941-2.9482,5.897-5.8815,8.867-8.8.302-.2971.093-14.9266.097-16.6569c0-.1238-.045-.229-.134-.3156l-10.073-9.9733c-.109-.109-.22-.1102-.332-.0038l-2.624,2.5064c-.099.094-.149.2079-.149.3416v4.3294c0,.156.055.2872.164.3936l5.152,5.1389c.099.099.098.198-.004.2971l-2.014,1.9568c-.114.1113-.228.1101-.342-.0038l-6.031-5.9595c-.109-.1089-.165-.2401-.167-.3935l-.116-6.8952c-.002-.1535.051-.2859.16-.3973l3.667-3.6537c.094-.0941.094-.1894,0-.2859L97.2239,16.267c-.1117-.1114-.247-.1683-.4058-.1708l-3.5477-.0409c-.1613-.0024-.2432.078-.2456.2414l-.0522,3.3937c-.0024.1461.0484.2699.1527.3714l4.9473,4.9346c.0944.0966.1489.2117.1638.3454.1117,1.1807.1638,1.9865.1564,2.4172-.1117,6.0572-.1477,12.1281-.108,18.2126.0025.1337-.0434.2476-.1377.3416l-9.0088,8.9745c-.0943.0941-.2072.1411-.3387.1411L80.58,55.3917c-.1762,0-.2643-.0891-.2643-.2673v-2.7217c0-.156.0769-.2339.2308-.2339h6.7566c.1315,0,.2432-.0458.335-.1374l7.1847-7.1143c.072-.0718.1079-.1596.1079-.2636L94.9233,26.697c0-.1312-.0459-.2438-.1377-.3379l-4.8134-4.801c-.1092-.1064-.1638-.2376-.1638-.3936v-5.6476c0-.1287-.0372-.2463-.1117-.3527-.7743-1.0793-1.7-2.0075-2.7771-2.7848-.1141-.0817-.2419-.1238-.3834-.1263h-4.3852c-.1316,0-.2433.0458-.3351.1374L75.6178,18.558c-.0944.094-.1415.2079-.1415.3416v5.0683c0,.1362-.0683.2018-.2048.1968l-2.9371-.1114c-.1365-.0049-.2047-.0742-.2047-.2079-.0075-1.8516-.0087-3.7032-.0038-5.5548c0-.8763.1713-1.0991.7706-1.656.5932-.5496,2.0003-1.9543,4.2215-4.2144.0943-.0965.0744-.146-.0596-.1485l-6.388-.0668c-.1191,0-.2221.0421-.309.1262-4.0428,3.9631-7.0593,6.9633-9.0497,9.0005-.5063.5199-.8004.8429-1.5896.8466-1.7968.0099-3.606.0112-5.4276.0037-.1513,0-.2804.052-.3871.156l-3.0749,3.015c-.0844.0817-.0856.1634-.0037.2451l3.4843,3.4605c.0993.0991.0993.1981,0,.2971l-1.9506,1.9011c-.1365.1337-.2718.1324-.4058-.0037l-5.7403-5.6996c-.0843-.0866-.0856-.172-.0037-.2562c1.8737-1.9358,3.7686-3.8505,5.6845-5.7441c1.0423-1.0286,5.3605-.6238,6.8868-.6053.1489,0,.2767-.052.3835-.1559l2.3713-2.317c.1489-.1436.1191-.2166-.0894-.2191-3.4298-.0247-6.8608-.0247-10.293,0-.4207,0-.8972.2191-1.1578.479-4.2934,4.2825-8.5918,8.5686-12.8952,12.8584-.1042.104-.1563.2302-.1563.3788v4.5596c0,.1263.062.1906.1861.1931l4.6719.1151c.1117.0025.1675.0607.1675.1745v2.8591c0,.1238-.062.1857-.1861.1857h-5.3904c-.1389,0-.2593.047-.3611.1411l-2.3936,2.2352c-.1092.104-.1638.2315-.1638.3825l.0298,7.2145c0,.1312.0471.2438.1414.3379l7.3708,7.3482c.1092.1089.2408.1633.3946.1633h4.4523c.0183-.0007.0362-.0067.0513-.0172s.0268-.025.0336-.0417.0084-.0349.0045-.0521c-.0038-.0173-.0129-.0329-.0261-.0449l-4.9064-4.801c-.1092-.1065-.1092-.2117,0-.3156l5.5914-5.5028c.0967-.0966.196-.0978.2978-.0037l2.0846,1.953c.0993.0916.1018.1857.0075.2822l-3.3169,3.3047c-.0968.0965-.0955.1931.0037.2896l4.8804,4.8344c.0869.0867.1911.13.3127.13l4.7166.0408c.1638.0025.304-.0557.4206-.1745l1.6305-1.6746c.149-.1535.1477-.3057-.0037-.4567l-3.2647-3.2044c-.1067-.1039-.1067-.2067,0-.3082l2.0735-1.9716c.1117-.1089.2221-.1077.3313.0037l3.879,3.9062c.066.0658.1445.1178.2308.1529s.1787.0525.2717.0513c2.4098-.0025,4.8134-.0013,7.2108.0037.7222,0,.8971-.2488,1.355-.7203c1.7323-1.7873,4.5267-4.5609,8.3834-8.3211.0992-.0965.2196-.1448.3611-.1448l5.2972-.0185c.1117,0,.1676-.057.1676-.1708v-6.2974c0-.1089.0546-.1622.1638-.1597l2.8552.0706c.1489.0024.2234.0779.2234.2265Zm2.9222,38.5714l9.0162.1003c.1266.0025.2346-.0408.3239-.13l7.702-7.6786c.08-.0767.063-.1151-.048-.1151l-22.1536.0111c-.134,0-.2097.0669-.2271.2005-.1564,1.1548-.1712,2.2242.7073,3.1413c1.4096,1.4654,2.8466,2.9061,4.3108,4.322.1042.099.2271.1485.3685.1485Z" fill="#f98d0d"/><path d="M63.8654,31.7469c-.4914.5236-.5211,1.1251-.4802,1.7638.1365,2.1139.1365,4.2366,0,6.3679-.0074.1287-.0534.2413-.1377.3379-1.1801,1.3738-3.2462,4.1512-5.5468,4.1549-1.3972.0025-2.7932.0013-4.1879-.0037-.1241,0-.1861-.0606-.1861-.1819l-.0038-2.6995c0-.2698.1341-.4109.4021-.4232c2.5165-.1114,4.3145.4715,5.9711-1.9643.8599-1.2624.4206-6.379.4281-8.0982c0-.1238.0446-.2302.134-.3193l5.1484-5.0535c.1191-.1164.2382-.1164.3574,0l1.9618,1.9642c.0893.0891.0881.177-.0037.2636-1.3278,1.2625-2.6133,2.5596-3.8567,3.8913Z" fill="#f98d0d"/><path d="M76.1278,32.8904v3.468c0,.0325-.013.0637-.036.0867-.0231.023-.0543.0359-.0869.0359h-2.9074c-.0325,0-.0638-.0129-.0868-.0359-.0231-.023-.036-.0542-.036-.0867l-.0298-6.7169c0-.0325.013-.0637.036-.0867s.0543-.0358.0869-.0358h6.4997c.0166.0001.0331-.0031.0485-.0095.0153-.0063.0292-.0158.0408-.0277l3.9013-3.8913c.0228-.0211.0527-.0329.0838-.0329s.061.0118.0837.0329l2.2336,2.0645c.0119.0111.0214.0245.028.0394.0066.0148.0101.0308.0105.0471s-.0026.0323-.0085.0475c-.006.0151-.0149.0289-.0263.0405l-4.9101,4.9013c-.0116.0119-.0255.0213-.0409.0277-.0153.0064-.0318.0096-.0485.0094h-4.7128c-.0326,0-.0638.0129-.0869.0359s-.0359.0541-.0359.0866Z" fill="#f98d0d"/></g>
<script><![CDATA[
!function(t,n){"object"==typeof exports&&"undefined"!=typeof module?module.exports=n():"function"==typeof __SVGATOR_DEFINE__&&__SVGATOR_DEFINE__.amd?__SVGATOR_DEFINE__(n):((t="undefined"!=typeof globalThis?globalThis:t||self).__SVGATOR_PLAYER__=t.__SVGATOR_PLAYER__||{},t.__SVGATOR_PLAYER__["5c7f360c"]=n())}(this,(function(){"use strict";function t(t,n){var e=Object.keys(t);if(Object.getOwnPropertySymbols){var r=Object.getOwnPropertySymbols(t);n&&(r=r.filter((function(n){return Object.getOwnPropertyDescriptor(t,n).enumerable}))),e.push.apply(e,r)}return e}function n(n){for(var e=1;e<arguments.length;e++){var r=null!=arguments[e]?arguments[e]:{};e%2?t(Object(r),!0).forEach((function(t){u(n,t,r[t])})):Object.getOwnPropertyDescriptors?Object.defineProperties(n,Object.getOwnPropertyDescriptors(r)):t(Object(r)).forEach((function(t){Object.defineProperty(n,t,Object.getOwnPropertyDescriptor(r,t))}))}return n}function e(t){return(e="function"==typeof Symbol&&"symbol"==typeof Symbol.iterator?function(t){return typeof t}:function(t){return t&&"function"==typeof Symbol&&t.constructor===Symbol&&t!==Symbol.prototype?"symbol":typeof t})(t)}function r(t,n){if(!(t instanceof n))throw new TypeError("Cannot call a class as a function")}function i(t,n){for(var e=0;e<n.length;e++){var r=n[e];r.enumerable=r.enumerable||!1,r.configurable=!0,"value"in r&&(r.writable=!0),Object.defineProperty(t,r.key,r)}}function o(t,n,e){return n&&i(t.prototype,n),e&&i(t,e),t}function u(t,n,e){return n in t?Object.defineProperty(t,n,{value:e,enumerable:!0,configurable:!0,writable:!0}):t[n]=e,t}function a(t){return(a=Object.setPrototypeOf?Object.getPrototypeOf:function(t){return t.__proto__||Object.getPrototypeOf(t)})(t)}function l(t,n){return(l=Object.setPrototypeOf||function(t,n){return t.__proto__=n,t})(t,n)}function s(){if("undefined"==typeof Reflect||!Reflect.construct)return!1;if(Reflect.construct.sham)return!1;if("function"==typeof Proxy)return!0;try{return Boolean.prototype.valueOf.call(Reflect.construct(Boolean,[],(function(){}))),!0}catch(t){return!1}}function f(t,n,e){return(f=s()?Reflect.construct:function(t,n,e){var r=[null];r.push.apply(r,n);var i=new(Function.bind.apply(t,r));return e&&l(i,e.prototype),i}).apply(null,arguments)}function c(t,n){if(n&&("object"==typeof n||"function"==typeof n))return n;if(void 0!==n)throw new TypeError("Derived constructors may only return object or undefined");return function(t){if(void 0===t)throw new ReferenceError("this hasn't been initialised - super() hasn't been called");return t}(t)}function h(t,n,e){return(h="undefined"!=typeof Reflect&&Reflect.get?Reflect.get:function(t,n,e){var r=function(t,n){for(;!Object.prototype.hasOwnProperty.call(t,n)&&null!==(t=a(t)););return t}(t,n);if(r){var i=Object.getOwnPropertyDescriptor(r,n);return i.get?i.get.call(e):i.value}})(t,n,e||t)}function v(t){return function(t){if(Array.isArray(t))return y(t)}(t)||function(t){if("undefined"!=typeof Symbol&&null!=t[Symbol.iterator]||null!=t["@@iterator"])return Array.from(t)}(t)||function(t,n){if(!t)return;if("string"==typeof t)return y(t,n);var e=Object.prototype.toString.call(t).slice(8,-1);"Object"===e&&t.constructor&&(e=t.constructor.name);if("Map"===e||"Set"===e)return Array.from(t);if("Arguments"===e||/^(?:Ui|I)nt(?:8|16|32)(?:Clamped)?Array$/.test(e))return y(t,n)}(t)||function(){throw new TypeError("Invalid attempt to spread non-iterable instance.\nIn order to be iterable, non-array objects must have a [Symbol.iterator]() method.")}()}function y(t,n){(null==n||n>t.length)&&(n=t.length);for(var e=0,r=new Array(n);e<n;e++)r[e]=t[e];return r}Number.isInteger||(Number.isInteger=function(t){return"number"==typeof t&&isFinite(t)&&Math.floor(t)===t}),Number.EPSILON||(Number.EPSILON=2220446049250313e-31);var g=d(Math.pow(10,-6));function d(t){var n=arguments.length>1&&void 0!==arguments[1]?arguments[1]:6;if(Number.isInteger(t))return t;var e=Math.pow(10,n);return Math.round((+t+Number.EPSILON)*e)/e}function p(t,n){var e=arguments.length>2&&void 0!==arguments[2]?arguments[2]:g;return Math.abs(t-n)<e}var m=Math.PI/180;function b(t){return t}function w(t,n,e){var r=1-e;return 3*e*r*(t*r+n*e)+e*e*e}function A(){var t=arguments.length>0&&void 0!==arguments[0]?arguments[0]:0,n=arguments.length>1&&void 0!==arguments[1]?arguments[1]:0,e=arguments.length>2&&void 0!==arguments[2]?arguments[2]:1,r=arguments.length>3&&void 0!==arguments[3]?arguments[3]:1;return t<0||t>1||e<0||e>1?null:p(t,n)&&p(e,r)?b:function(i){if(i<=0)return t>0?i*n/t:0===n&&e>0?i*r/e:0;if(i>=1)return e<1?1+(i-1)*(r-1)/(e-1):1===e&&t<1?1+(i-1)*(n-1)/(t-1):1;for(var o,u=0,a=1;u<a;){var l=w(t,e,o=(u+a)/2);if(p(i,l))break;l<i?u=o:a=o}return w(n,r,o)}}function _(){return 1}function x(t){return 1===t?1:0}function k(){var t=arguments.length>0&&void 0!==arguments[0]?arguments[0]:1,n=arguments.length>1&&void 0!==arguments[1]?arguments[1]:0;if(1===t){if(0===n)return x;if(1===n)return _}var e=1/t;return function(t){return t>=1?1:(t+=n*e)-t%e}}var S=Math.sin,O=Math.cos,j=Math.acos,E=Math.asin,M=Math.tan,P=Math.atan2,I=Math.PI/180,R=180/Math.PI,F=Math.sqrt,N=function(){function t(){var n=arguments.length>0&&void 0!==arguments[0]?arguments[0]:1,e=arguments.length>1&&void 0!==arguments[1]?arguments[1]:0,i=arguments.length>2&&void 0!==arguments[2]?arguments[2]:0,o=arguments.length>3&&void 0!==arguments[3]?arguments[3]:1,u=arguments.length>4&&void 0!==arguments[4]?arguments[4]:0,a=arguments.length>5&&void 0!==arguments[5]?arguments[5]:0;r(this,t),this.m=[n,e,i,o,u,a],this.i=null,this.w=null,this.s=null}return o(t,[{key:"determinant",get:function(){var t=this.m;return t[0]*t[3]-t[1]*t[2]}},{key:"isIdentity",get:function(){if(null===this.i){var t=this.m;this.i=1===t[0]&&0===t[1]&&0===t[2]&&1===t[3]&&0===t[4]&&0===t[5]}return this.i}},{key:"point",value:function(t,n){var e=this.m;return{x:e[0]*t+e[2]*n+e[4],y:e[1]*t+e[3]*n+e[5]}}},{key:"translateSelf",value:function(){var t=arguments.length>0&&void 0!==arguments[0]?arguments[0]:0,n=arguments.length>1&&void 0!==arguments[1]?arguments[1]:0;if(!t&&!n)return this;var e=this.m;return e[4]+=e[0]*t+e[2]*n,e[5]+=e[1]*t+e[3]*n,this.w=this.s=this.i=null,this}},{key:"rotateSelf",value:function(){var t=arguments.length>0&&void 0!==arguments[0]?arguments[0]:0;if(t%=360){var n=S(t*=I),e=O(t),r=this.m,i=r[0],o=r[1];r[0]=i*e+r[2]*n,r[1]=o*e+r[3]*n,r[2]=r[2]*e-i*n,r[3]=r[3]*e-o*n,this.w=this.s=this.i=null}return this}},{key:"scaleSelf",value:function(){var t=arguments.length>0&&void 0!==arguments[0]?arguments[0]:1,n=arguments.length>1&&void 0!==arguments[1]?arguments[1]:1;if(1!==t||1!==n){var e=this.m;e[0]*=t,e[1]*=t,e[2]*=n,e[3]*=n,this.w=this.s=this.i=null}return this}},{key:"skewSelf",value:function(t,n){if(n%=360,(t%=360)||n){var e=this.m,r=e[0],i=e[1],o=e[2],u=e[3];t&&(t=M(t*I),e[2]+=r*t,e[3]+=i*t),n&&(n=M(n*I),e[0]+=o*n,e[1]+=u*n),this.w=this.s=this.i=null}return this}},{key:"resetSelf",value:function(){var t=arguments.length>0&&void 0!==arguments[0]?arguments[0]:1,n=arguments.length>1&&void 0!==arguments[1]?arguments[1]:0,e=arguments.length>2&&void 0!==arguments[2]?arguments[2]:0,r=arguments.length>3&&void 0!==arguments[3]?arguments[3]:1,i=arguments.length>4&&void 0!==arguments[4]?arguments[4]:0,o=arguments.length>5&&void 0!==arguments[5]?arguments[5]:0,u=this.m;return u[0]=t,u[1]=n,u[2]=e,u[3]=r,u[4]=i,u[5]=o,this.w=this.s=this.i=null,this}},{key:"recomposeSelf",value:function(){var t=arguments.length>0&&void 0!==arguments[0]?arguments[0]:null,n=arguments.length>1&&void 0!==arguments[1]?arguments[1]:null,e=arguments.length>2&&void 0!==arguments[2]?arguments[2]:null,r=arguments.length>3&&void 0!==arguments[3]?arguments[3]:null,i=arguments.length>4&&void 0!==arguments[4]?arguments[4]:null;return this.isIdentity||this.resetSelf(),t&&(t.x||t.y)&&this.translateSelf(t.x,t.y),n&&this.rotateSelf(n),e&&(e.x&&this.skewSelf(e.x,0),e.y&&this.skewSelf(0,e.y)),!r||1===r.x&&1===r.y||this.scaleSelf(r.x,r.y),i&&(i.x||i.y)&&this.translateSelf(i.x,i.y),this}},{key:"decompose",value:function(){var t=arguments.length>0&&void 0!==arguments[0]?arguments[0]:0,n=arguments.length>1&&void 0!==arguments[1]?arguments[1]:0,e=this.m,r=e[0]*e[0]+e[1]*e[1],i=[[e[0],e[1]],[e[2],e[3]]],o=F(r);if(0===o)return{origin:{x:d(e[4]),y:d(e[5])},translate:{x:d(t),y:d(n)},scale:{x:0,y:0},skew:{x:0,y:0},rotate:0};i[0][0]/=o,i[0][1]/=o;var u=e[0]*e[3]-e[1]*e[2]<0;u&&(o=-o);var a=i[0][0]*i[1][0]+i[0][1]*i[1][1];i[1][0]-=i[0][0]*a,i[1][1]-=i[0][1]*a;var l=F(i[1][0]*i[1][0]+i[1][1]*i[1][1]);if(0===l)return{origin:{x:d(e[4]),y:d(e[5])},translate:{x:d(t),y:d(n)},scale:{x:d(o),y:0},skew:{x:0,y:0},rotate:0};i[1][0]/=l,i[1][1]/=l,a/=l;var s=0;return i[1][1]<0?(s=j(i[1][1])*R,i[0][1]<0&&(s=360-s)):s=E(i[0][1])*R,u&&(s=-s),a=P(a,F(i[0][0]*i[0][0]+i[0][1]*i[0][1]))*R,u&&(a=-a),{origin:{x:d(e[4]),y:d(e[5])},translate:{x:d(t),y:d(n)},scale:{x:d(o),y:d(l)},skew:{x:d(a),y:0},rotate:d(s)}}},{key:"clone",value:function(){var t=this.m;return new this.constructor(t[0],t[1],t[2],t[3],t[4],t[5])}},{key:"toString",value:function(){var t=arguments.length>0&&void 0!==arguments[0]?arguments[0]:" ";if(null===this.s){var n=this.m.map((function(t){return d(t)}));1===n[0]&&0===n[1]&&0===n[2]&&1===n[3]?this.s="translate("+n[4]+t+n[5]+")":this.s="matrix("+n.join(t)+")"}return this.s}}],[{key:"create",value:function(t){return t?Array.isArray(t)?f(this,v(t)):t instanceof this?t.clone():(new this).recomposeSelf(t.origin,t.rotate,t.skew,t.scale,t.translate):new this}}]),t}();function T(t,n,e){return t>=.5?e:n}function q(t,n,e){return 0===t||n===e?n:t*(e-n)+n}function B(t,n,e){var r=q(t,n,e);return r<=0?0:r}function D(t,n,e){var r=q(t,n,e);return r<=0?0:r>=1?1:r}function L(t,n,e){return 0===t?n:1===t?e:{x:q(t,n.x,e.x),y:q(t,n.y,e.y)}}function C(t,n,e){var r=function(t,n,e){return Math.round(q(t,n,e))}(t,n,e);return r<=0?0:r>=255?255:r}function V(t,n,e){return 0===t?n:1===t?e:{r:C(t,n.r,e.r),g:C(t,n.g,e.g),b:C(t,n.b,e.b),a:q(t,null==n.a?1:n.a,null==e.a?1:e.a)}}function G(t,n){for(var e=[],r=0;r<t;r++)e.push(n);return e}function z(t,n){if(--n<=0)return t;var e=(t=Object.assign([],t)).length;do{for(var r=0;r<e;r++)t.push(t[r])}while(--n>0);return t}var Y,$=function(){function t(n){r(this,t),this.list=n,this.length=n.length}return o(t,[{key:"setAttribute",value:function(t,n){for(var e=this.list,r=0;r<this.length;r++)e[r].setAttribute(t,n)}},{key:"removeAttribute",value:function(t){for(var n=this.list,e=0;e<this.length;e++)n[e].removeAttribute(t)}},{key:"style",value:function(t,n){for(var e=this.list,r=0;r<this.length;r++)e[r].style[t]=n}}]),t}(),U=/-./g,Q=function(t,n){return n.toUpperCase()};function H(t){return"function"==typeof t?t:T}function J(t){return t?"function"==typeof t?t:Array.isArray(t)?function(t){var n=arguments.length>1&&void 0!==arguments[1]?arguments[1]:b;if(!Array.isArray(t))return n;switch(t.length){case 1:return k(t[0])||n;case 2:return k(t[0],t[1])||n;case 4:return A(t[0],t[1],t[2],t[3])||n}return n}(t,null):function(t,n){var e=arguments.length>2&&void 0!==arguments[2]?arguments[2]:b;switch(t){case"linear":return b;case"steps":return k(n.steps||1,n.jump||0)||e;case"bezier":case"cubic-bezier":return A(n.x1||0,n.y1||0,n.x2||0,n.y2||0)||e}return e}(t.type,t.value,null):null}function Z(t,n,e){var r=arguments.length>3&&void 0!==arguments[3]&&arguments[3],i=n.length-1;if(t<=n[0].t)return r?[0,0,n[0].v]:n[0].v;if(t>=n[i].t)return r?[i,1,n[i].v]:n[i].v;var o,u=n[0],a=null;for(o=1;o<=i;o++){if(!(t>n[o].t)){a=n[o];break}u=n[o]}return null==a?r?[i,1,n[i].v]:n[i].v:u.t===a.t?r?[o,1,a.v]:a.v:(t=(t-u.t)/(a.t-u.t),u.e&&(t=u.e(t)),r?[o,t,e(t,u.v,a.v)]:e(t,u.v,a.v))}function K(t,n){var e=arguments.length>2&&void 0!==arguments[2]?arguments[2]:null;return t&&t.length?"function"!=typeof n?null:("function"!=typeof e&&(e=null),function(r){var i=Z(r,t,n);return null!=i&&e&&(i=e(i)),i}):null}function W(t,n){return t.t-n.t}function X(t,n,r,i,o){var u,a="@"===r[0],l="#"===r[0],s=Y[r],f=T;switch(a?(u=r.substr(1),r=u.replace(U,Q)):l&&(r=r.substr(1)),e(s)){case"function":if(f=s(i,o,Z,J,r,a,n,t),l)return f;break;case"string":f=K(i,H(s));break;case"object":if((f=K(i,H(s.i),s.f))&&"function"==typeof s.u)return s.u(n,f,r,a,t)}return f?function(t,n,e){if(arguments.length>3&&void 0!==arguments[3]&&arguments[3])return t instanceof $?function(r){return t.style(n,e(r))}:function(r){return t.style[n]=e(r)};if(Array.isArray(n)){var r=n.length;return function(i){var o=e(i);if(null==o)for(var u=0;u<r;u++)t[u].removeAttribute(n);else for(var a=0;a<r;a++)t[a].setAttribute(n,o)}}return function(r){var i=e(r);null==i?t.removeAttribute(n):t.setAttribute(n,i)}}(n,r,f,a):null}function tt(t,n,r,i){if(!i||"object"!==e(i))return null;var o=null,u=null;return Array.isArray(i)?u=function(t){if(!t||!t.length)return null;for(var n=0;n<t.length;n++)t[n].e&&(t[n].e=J(t[n].e));return t.sort(W)}(i):(u=i.keys,o=i.data||null),u?X(t,n,r,u,o):null}function nt(t,n,e){if(!e)return null;var r=[];for(var i in e)if(e.hasOwnProperty(i)){var o=tt(t,n,i,e[i]);o&&r.push(o)}return r.length?r:null}function et(t,n){if(!n.settings.duration||n.settings.duration<0)return null;var e,r,i,o,u,a=function(t,n){if(!n)return null;var e=[];if(Array.isArray(n))for(var r=n.length,i=0;i<r;i++){var o=n[i];if(2===o.length){var u=null;if("string"==typeof o[0])u=t.getElementById(o[0]);else if(Array.isArray(o[0])){u=[];for(var a=0;a<o[0].length;a++)if("string"==typeof o[0][a]){var l=t.getElementById(o[0][a]);l&&u.push(l)}u=u.length?1===u.length?u[0]:new $(u):null}if(u){var s=nt(t,u,o[1]);s&&(e=e.concat(s))}}}else for(var f in n)if(n.hasOwnProperty(f)){var c=t.getElementById(f);if(c){var h=nt(t,c,n[f]);h&&(e=e.concat(h))}}return e.length?e:null}(t,n.elements);return a?(e=a,r=n.settings,i=r.duration,o=e.length,u=null,function(t,n){var a=r.iterations||1/0,l=(r.alternate&&a%2==0)^r.direction>0?i:0,s=t%i,f=1+(t-s)/i;n*=r.direction,r.alternate&&f%2==0&&(n=-n);var c=!1;if(f>a)s=l,c=!0,-1===r.fill&&(s=r.direction>0?0:i);else if(n<0&&(s=i-s),s===u)return!1;u=s;for(var h=0;h<o;h++)e[h](s);return c}):null}function rt(t,n){for(var e=n.querySelectorAll("svg"),r=0;r<e.length;r++)if(e[r].id===t.root&&!e[r].svgatorAnimation)return e[r].svgatorAnimation=!0,e[r];return null}function it(t){var n=function(t){return t.shadowRoot};return document?Array.from(t.querySelectorAll(":not("+["a","area","audio","br","canvas","circle","datalist","embed","g","head","hr","iframe","img","input","link","object","path","polygon","rect","script","source","style","svg","title","track","video"].join()+")")).filter(n).map(n):[]}function ot(t){var n=arguments.length>1&&void 0!==arguments[1]?arguments[1]:document,e=arguments.length>2&&void 0!==arguments[2]?arguments[2]:0,r=rt(t,n);if(r)return r;if(e>=20)return null;for(var i=it(n),o=0;o<i.length;o++){var u=ot(t,i[o],e+1);if(u)return u}return null}function ut(t,n){if(Y=n,!t||!t.root||!Array.isArray(t.animations))return null;var e=ot(t);if(!e)return null;var r=t.animations.map((function(t){return et(e,t)})).filter((function(t){return!!t}));return r.length?{svg:e,animations:r,animationSettings:t.animationSettings,options:t.options||void 0}:null}function at(t){var n=arguments.length>1&&void 0!==arguments[1]?arguments[1]:null,e=arguments.length>2&&void 0!==arguments[2]?arguments[2]:Number,r=arguments.length>3&&void 0!==arguments[3]?arguments[3]:"undefined"!=typeof BigInt&&BigInt,i="0x"+(t.replace(/[^0-9a-fA-F]+/g,"")||27);return n&&r&&e.isSafeInteger&&!e.isSafeInteger(+i)?e(r(i))%n+n:+i}function lt(t,n,e){return!t||!e||n>t.length?t:t.substring(0,n)+lt(t.substring(n+1),e,e)}function st(t){var n=arguments.length>1&&void 0!==arguments[1]?arguments[1]:27;return!t||t%n?t%n:[0,1].includes(n)?n:st(t/n,n)}function ft(t,n,e){if(t&&t.length){var r=at(e),i=st(r)+5,o=lt(t,st(r,5),i);return o=o.replace(/\x7c$/g,"==").replace(/\x2f$/g,"="),o=function(t,n,e){var r=+("0x"+t.substring(0,4));t=t.substring(4);for(var i=at(n,r)%r+e%27,o=[],u=0;u<t.length;u+=2)if("|"!==t[u]){var a=+("0x"+t[u]+t[u+1])-i;o.push(a)}else{var l=+("0x"+t.substring(u+1,u+1+4))-i;u+=3,o.push(l)}return String.fromCharCode.apply(String,o)}(o=(o=atob(o)).replace(/[\x41-\x5A]/g,""),n,r),o=JSON.parse(o)}}var ct=[{key:"alternate",def:!1},{key:"fill",def:1},{key:"iterations",def:0},{key:"direction",def:1},{key:"speed",def:1},{key:"fps",def:100}],ht=function(){function t(n,e){var i=this,o=arguments.length>2&&void 0!==arguments[2]?arguments[2]:null;r(this,t),this._id=0,this._running=!1,this._rollingBack=!1,this._animations=n,this._settings=e,(!o||o<"2022-05-02")&&delete this._settings.speed,ct.forEach((function(t){i._settings[t.key]=i._settings[t.key]||t.def})),this.duration=e.duration,this.offset=e.offset||0,this.rollbackStartOffset=0}return o(t,[{key:"alternate",get:function(){return this._settings.alternate}},{key:"fill",get:function(){return this._settings.fill}},{key:"iterations",get:function(){return this._settings.iterations}},{key:"direction",get:function(){return this._settings.direction}},{key:"speed",get:function(){return this._settings.speed}},{key:"fps",get:function(){return this._settings.fps}},{key:"maxFiniteDuration",get:function(){return this.iterations>0?this.iterations*this.duration:this.duration}},{key:"_apply",value:function(t){for(var n=arguments.length>1&&void 0!==arguments[1]?arguments[1]:{},e=this._animations,r=e.length,i=0,o=0;o<r;o++)n[o]?i++:(n[o]=e[o](t,1),n[o]&&i++);return i}},{key:"_rollback",value:function(t){var n=this,e=1/0,r=null;this.rollbackStartOffset=t,this._rollingBack=!0,this._running=!0;this._id=window.requestAnimationFrame((function i(o){if(n._rollingBack){null==r&&(r=o);var u=Math.round(t-(o-r)*n.speed);if(u>n.duration&&e!==1/0){var a=!!n.alternate&&u/n.duration%2>1,l=u%n.duration;u=(l+=a?n.duration:0)||n.duration}var s=(n.fps?1e3/n.fps:0)*n.speed,f=Math.max(0,u);f<=e-s&&(n.offset=f,e=f,n._apply(f));var c=n.iterations>0&&-1===n.fill&&u>=n.maxFiniteDuration;(u<=0||n.offset<u||c)&&n.stop(),n._id=window.requestAnimationFrame(i)}}))}},{key:"_start",value:function(){var t=this,n=arguments.length>0&&void 0!==arguments[0]?arguments[0]:0,e=-1/0,r=null,i={};this._running=!0;var o=function o(u){null==r&&(r=u);var a=Math.round((u-r)*t.speed+n),l=(t.fps?1e3/t.fps:0)*t.speed;if(a>=e+l&&!t._rollingBack&&(t.offset=a,e=a,t._apply(a,i)===t._animations.length))return void t.pause(!0);t._id=window.requestAnimationFrame(o)};this._id=window.requestAnimationFrame(o)}},{key:"_pause",value:function(){this._id&&window.cancelAnimationFrame(this._id),this._running=!1}},{key:"play",value:function(){if(!this._running)return this._rollingBack?this._rollback(this.offset):this._start(this.offset)}},{key:"stop",value:function(){this._pause(),this.offset=0,this.rollbackStartOffset=0,this._rollingBack=!1,this._apply(0)}},{key:"reachedToEnd",value:function(){return this.iterations>0&&this.offset>=this.iterations*this.duration}},{key:"restart",value:function(){var t=arguments.length>0&&void 0!==arguments[0]&&arguments[0];this.stop(t),this.play(t)}},{key:"pause",value:function(){this._pause()}},{key:"reverse",value:function(){this.direction=-this.direction}}],[{key:"build",value:function(t,n){delete t.animationSettings,t.options=ft(t.options,t.root,"5c7f360c"),t.animations.map((function(n){n.settings=ft(n.s,t.root,"5c7f360c"),delete n.s,t.animationSettings||(t.animationSettings=n.settings)}));var e=t.version;if(!(t=ut(t,n)))return null;var r=t.options||{},i=new this(t.animations,t.animationSettings,e);return{el:t.svg,options:r,player:i}}},{key:"push",value:function(t){return this.build(t)}},{key:"init",value:function(){var t=this,n=window.__SVGATOR_PLAYER__&&window.__SVGATOR_PLAYER__["5c7f360c"];Array.isArray(n)&&n.splice(0).forEach((function(n){return t.build(n)}))}}]),t}();function vt(t){return d(t)+""}function yt(t){var n=arguments.length>1&&void 0!==arguments[1]?arguments[1]:" ";return t&&t.length?t.map(vt).join(n):""}function gt(t){if(!t)return"transparent";if(null==t.a||t.a>=1){var n=function(t){return 1===(t=parseInt(t).toString(16)).length?"0"+t:t},e=function(t){return t.charAt(0)===t.charAt(1)},r=n(t.r),i=n(t.g),o=n(t.b);return e(r)&&e(i)&&e(o)&&(r=r.charAt(0),i=i.charAt(0),o=o.charAt(0)),"#"+r+i+o}return"rgba("+t.r+","+t.g+","+t.b+","+t.a+")"}function dt(t){return t?"url(#"+t+")":"none"}!function(){for(var t=0,n=["ms","moz","webkit","o"],e=0;e<n.length&&!window.requestAnimationFrame;++e)window.requestAnimationFrame=window[n[e]+"RequestAnimationFrame"],window.cancelAnimationFrame=window[n[e]+"CancelAnimationFrame"]||window[n[e]+"CancelRequestAnimationFrame"];window.requestAnimationFrame||(window.requestAnimationFrame=function(n){var e=Date.now(),r=Math.max(0,16-(e-t)),i=window.setTimeout((function(){n(e+r)}),r);return t=e+r,i},window.cancelAnimationFrame=window.clearTimeout)}();var pt={f:null,i:function(t,n,e){return 0===t?n:1===t?e:{x:B(t,n.x,e.x),y:B(t,n.y,e.y)}},u:function(t,n){return function(e){var r=n(e);t.setAttribute("rx",vt(r.x)),t.setAttribute("ry",vt(r.y))}}},mt={f:null,i:function(t,n,e){return 0===t?n:1===t?e:{width:B(t,n.width,e.width),height:B(t,n.height,e.height)}},u:function(t,n){return function(e){var r=n(e);t.setAttribute("width",vt(r.width)),t.setAttribute("height",vt(r.height))}}};Object.freeze({M:2,L:2,Z:0,H:1,V:1,C:6,Q:4,T:2,S:4,A:7});var bt={},wt=null;function At(t){var n=function(){if(wt)return wt;if("object"!==("undefined"==typeof document?"undefined":e(document))||!document.createElementNS)return{};var t=document.createElementNS("http://www.w3.org/2000/svg","svg");return t&&t.style?(t.style.position="absolute",t.style.opacity="0.01",t.style.zIndex="-9999",t.style.left="-9999px",t.style.width="1px",t.style.height="1px",wt={svg:t}):{}}().svg;if(!n)return function(t){return null};var r=document.createElementNS(n.namespaceURI,"path");r.setAttributeNS(null,"d",t),r.setAttributeNS(null,"fill","none"),r.setAttributeNS(null,"stroke","none"),n.appendChild(r);var i=r.getTotalLength();return function(t){var n=r.getPointAtLength(i*t);return{x:n.x,y:n.y}}}function _t(t){return bt[t]?bt[t]:bt[t]=At(t)}function xt(t,n,e,r){if(!t||!r)return!1;var i=["M",t.x,t.y];if(n&&e&&(i.push("C"),i.push(n.x),i.push(n.y),i.push(e.x),i.push(e.y)),n?!e:e){var o=n||e;i.push("Q"),i.push(o.x),i.push(o.y)}return n||e||i.push("L"),i.push(r.x),i.push(r.y),i.join(" ")}function kt(t,n,e,r){var i=arguments.length>4&&void 0!==arguments[4]?arguments[4]:1,o=xt(t,n,e,r),u=_t(o);try{return u(i)}catch(t){return null}}function St(t,n,e){return t+(n-t)*e}function Ot(t,n,e){var r=arguments.length>3&&void 0!==arguments[3]&&arguments[3],i={x:St(t.x,n.x,e),y:St(t.y,n.y,e)};return r&&(i.a=jt(t,n)),i}function jt(t,n){return Math.atan2(n.y-t.y,n.x-t.x)}function Et(t,n,e,r){var i=1-r;return i*i*t+2*i*r*n+r*r*e}function Mt(t,n,e,r){return 2*(1-r)*(n-t)+2*r*(e-n)}function Pt(t,n,e,r){var i=arguments.length>4&&void 0!==arguments[4]&&arguments[4],o=kt(t,n,null,e,r);return o||(o={x:Et(t.x,n.x,e.x,r),y:Et(t.y,n.y,e.y,r)}),i&&(o.a=It(t,n,e,r)),o}function It(t,n,e,r){return Math.atan2(Mt(t.y,n.y,e.y,r),Mt(t.x,n.x,e.x,r))}function Rt(t,n,e,r,i){var o=i*i;return i*o*(r-t+3*(n-e))+3*o*(t+e-2*n)+3*i*(n-t)+t}function Ft(t,n,e,r,i){var o=1-i;return 3*(o*o*(n-t)+2*o*i*(e-n)+i*i*(r-e))}function Nt(t,n,e,r,i){var o=arguments.length>5&&void 0!==arguments[5]&&arguments[5],u=kt(t,n,e,r,i);return u||(u={x:Rt(t.x,n.x,e.x,r.x,i),y:Rt(t.y,n.y,e.y,r.y,i)}),o&&(u.a=Tt(t,n,e,r,i)),u}function Tt(t,n,e,r,i){return Math.atan2(Ft(t.y,n.y,e.y,r.y,i),Ft(t.x,n.x,e.x,r.x,i))}function qt(t,n,e){var r=arguments.length>3&&void 0!==arguments[3]&&arguments[3];if(Dt(n)){if(Lt(e))return Pt(n,e.start,e,t,r)}else if(Dt(e)){if(Ct(n))return Pt(n,n.end,e,t,r)}else{if(Ct(n))return Lt(e)?Nt(n,n.end,e.start,e,t,r):Pt(n,n.end,e,t,r);if(Lt(e))return Pt(n,e.start,e,t,r)}return Ot(n,e,t,r)}function Bt(t,n,e){var r=qt(t,n,e,!0);return r.a=function(t){return arguments.length>1&&void 0!==arguments[1]&&arguments[1]?t+Math.PI:t}(r.a)/m,r}function Dt(t){return!t.type||"corner"===t.type}function Lt(t){return null!=t.start&&!Dt(t)}function Ct(t){return null!=t.end&&!Dt(t)}var Vt=new N;var Gt={f:vt,i:q},zt={f:vt,i:D};function Yt(t,n,e){return t.map((function(t){return function(t,n,e){var r=t.v;if(!r||"g"!==r.t||r.s||!r.v||!r.r)return t;var i=e.getElementById(r.r),o=i&&i.querySelectorAll("stop")||[];return r.s=r.v.map((function(t,n){var e=o[n]&&o[n].getAttribute("offset");return{c:t,o:e=d(parseInt(e)/100)}})),delete r.v,t}(t,0,e)}))}var $t={gt:"gradientTransform",c:{x:"cx",y:"cy"},rd:"r",f:{x:"x1",y:"y1"},to:{x:"x2",y:"y2"}};function Ut(t,n,r,i,o,u,a,l){return Yt(t,0,l),n=function(t,n,e){for(var r,i,o,u=t.length-1,a={},l=0;l<=u;l++)(r=t[l]).e&&(r.e=n(r.e)),r.v&&"g"===(i=r.v).t&&i.r&&(o=e.getElementById(i.r))&&(a[i.r]={e:o,s:o.querySelectorAll("stop")});return a}(t,i,l),function(i){var o=r(i,t,Qt);if(!o)return"none";if("c"===o.t)return gt(o.v);if("g"===o.t){if(!n[o.r])return dt(o.r);var u=n[o.r];return function(t,n){for(var e=t.s,r=e.length;r<n.length;r++){var i=e[e.length-1].cloneNode();i.id=Zt(i.id),t.e.appendChild(i),e=t.s=t.e.querySelectorAll("stop")}for(var o=0,u=e.length,a=n.length-1;o<u;o++)e[o].setAttribute("stop-color",gt(n[Math.min(o,a)].c)),e[o].setAttribute("offset",n[Math.min(o,a)].o)}(u,o.s),Object.keys($t).forEach((function(t){if(void 0!==o[t])if("object"!==e($t[t])){var n,r="gt"===t?(n=o[t],Array.isArray(n)?"matrix("+n.join(" ")+")":""):o[t],i=$t[t];u.e.setAttribute(i,r)}else Object.keys($t[t]).forEach((function(n){if(void 0!==o[t][n]){var e=o[t][n],r=$t[t][n];u.e.setAttribute(r,e)}}))})),dt(o.r)}return"none"}}function Qt(t,e,r){if(0===t)return e;if(1===t)return r;if(e&&r){var i=e.t;if(i===r.t)switch(e.t){case"c":return{t:i,v:V(t,e.v,r.v)};case"g":if(e.r===r.r){var o={t:i,s:Ht(t,e.s,r.s),r:e.r};return e.gt&&r.gt&&(o.gt=function(t,n,e){var r=n.length;if(r!==e.length)return T(t,n,e);for(var i=new Array(r),o=0;o<r;o++)i[o]=q(t,n[o],e[o]);return i}(t,e.gt,r.gt)),e.c?(o.c=L(t,e.c,r.c),o.rd=B(t,e.rd,r.rd)):e.f&&(o.f=L(t,e.f,r.f),o.to=L(t,e.to,r.to)),o}}if("c"===e.t&&"g"===r.t||"c"===r.t&&"g"===e.t){var u="c"===e.t?e:r,a="g"===e.t?n({},e):n({},r),l=a.s.map((function(t){return{c:u.v,o:t.o}}));return a.s="c"===e.t?Ht(t,l,a.s):Ht(t,a.s,l),a}}return T(t,e,r)}function Ht(t,n,e){if(n.length===e.length)return n.map((function(n,r){return Jt(t,n,e[r])}));for(var r=Math.max(n.length,e.length),i=[],o=0;o<r;o++){var u=Jt(t,n[Math.min(o,n.length-1)],e[Math.min(o,e.length-1)]);i.push(u)}return i}function Jt(t,n,e){return{o:D(t,n.o,e.o||0),c:V(t,n.c,e.c||{})}}function Zt(t){return t.replace(/-fill-([0-9]+)$/,(function(t,n){return"-fill-"+(+n+1)}))}var Kt={fill:Ut,"fill-opacity":zt,stroke:Ut,"stroke-opacity":zt,"stroke-width":Gt,"stroke-dashoffset":{f:vt,i:q},"stroke-dasharray":{f:function(t){var n=arguments.length>1&&void 0!==arguments[1]?arguments[1]:" ";return t&&t.length>0&&(t=t.map((function(t){return d(t,4)}))),yt(t,n)},i:function(t,n,e){var r,i,o,u=n.length,a=e.length;if(u!==a)if(0===u)n=G(u=a,0);else if(0===a)a=u,e=G(u,0);else{var l=(o=(r=u)*(i=a)/function(t,n){for(var e;n;)e=n,n=t%n,t=e;return t||1}(r,i))<0?-o:o;n=z(n,Math.floor(l/u)),e=z(e,Math.floor(l/a)),u=a=l}for(var s=[],f=0;f<u;f++)s.push(d(B(t,n[f],e[f])));return s}},opacity:zt,transform:function(t,n,r,i){if(!(t=function(t,n){if(!t||"object"!==e(t))return null;var r=!1;for(var i in t)t.hasOwnProperty(i)&&(t[i]&&t[i].length?(t[i].forEach((function(t){t.e&&(t.e=n(t.e))})),r=!0):delete t[i]);return r?t:null}(t,i)))return null;var o=function(e,i,o){var u=arguments.length>3&&void 0!==arguments[3]?arguments[3]:null;return t[e]?r(i,t[e],o):n&&n[e]?n[e]:u};return n&&n.a&&t.o?function(n){var e=r(n,t.o,Bt);return Vt.recomposeSelf(e,o("r",n,q,0)+e.a,o("k",n,L),o("s",n,L),o("t",n,L)).toString()}:function(t){return Vt.recomposeSelf(o("o",t,qt,null),o("r",t,q,0),o("k",t,L),o("s",t,L),o("t",t,L)).toString()}},r:Gt,"#size":mt,"#radius":pt,_:function(t,n){if(Array.isArray(t))for(var e=0;e<t.length;e++)this[t[e]]=n;else this[t]=n}},Wt=function(t){!function(t,n){if("function"!=typeof n&&null!==n)throw new TypeError("Super expression must either be null or a function");t.prototype=Object.create(n&&n.prototype,{constructor:{value:t,writable:!0,configurable:!0}}),n&&l(t,n)}(u,t);var n,e,i=(n=u,e=s(),function(){var t,r=a(n);if(e){var i=a(this).constructor;t=Reflect.construct(r,arguments,i)}else t=r.apply(this,arguments);return c(this,t)});function u(){return r(this,u),i.apply(this,arguments)}return o(u,null,[{key:"build",value:function(t){var n=h(a(u),"build",this).call(this,t,Kt);if(!n)return null;n.el,n.options,function(t,n,e){t.play()}(n.player)}}]),u}(ht);return Wt.init(),Wt}));
(function(s,i,o,w,d,a,b){w[o]=w[o]||{};w[o][s]=w[o][s]||[];w[o][s].push(i);})('5c7f360c',{"root":"emCIKQ4LUiZ1","version":"2022-05-04","animations":[{"elements":{"emCIKQ4LUiZ3":{"transform":{"data":{"k":{"x":0.002406,"y":0}},"keys":{"o":[{"t":200,"v":{"x":120,"y":43,"type":"corner"}},{"t":600,"v":{"x":180,"y":43,"type":"corner"}},{"t":800,"v":{"x":180,"y":43,"type":"corner"}},{"t":1000,"v":{"x":170,"y":43,"type":"corner"}},{"t":1400,"v":{"x":150,"y":43,"type":"corner"}}],"r":[{"t":600,"v":-180},{"t":1400,"v":-135}],"s":[{"t":200,"v":{"x":-1,"y":1}},{"t":600,"v":{"x":60,"y":1}}]}}},"emCIKQ4LUiZ4":{"transform":{"data":{"k":{"x":-0.002693,"y":0}},"keys":{"o":[{"t":200,"v":{"x":122.000063,"y":42.9998,"type":"corner"}},{"t":600,"v":{"x":180,"y":42.9998,"type":"corner"}},{"t":800,"v":{"x":180,"y":42.9998,"type":"corner"}},{"t":1000,"v":{"x":170,"y":42.9998,"type":"corner"}},{"t":1400,"v":{"x":150,"y":42.9998,"type":"corner"}}],"r":[{"t":600,"v":179.999714},{"t":1400,"v":135}],"s":[{"t":200,"v":{"x":1,"y":1}},{"t":600,"v":{"x":60,"y":1}}]}}},"emCIKQ4LUiZ5":{"transform":{"data":{"k":{"x":0.147136,"y":0}},"keys":{"o":[{"t":200,"v":{"x":32,"y":43,"type":"corner"}},{"t":600,"v":{"x":-28,"y":43,"type":"corner"}},{"t":800,"v":{"x":-27,"y":43,"type":"corner"}},{"t":1000,"v":{"x":-20,"y":43,"type":"corner"}},{"t":1400,"v":{"x":5,"y":43,"type":"corner"}}],"r":[{"t":600,"v":-180},{"t":1400,"v":-135}],"s":[{"t":200,"v":{"x":-1,"y":0.999997}},{"t":600,"v":{"x":-60,"y":0.999997}}]}}},"emCIKQ4LUiZ6":{"transform":{"data":{"k":{"x":-0.147136,"y":0},"t":{"x":0.000005,"y":0}},"keys":{"o":[{"t":200,"v":{"x":32.003852,"y":43,"type":"corner"}},{"t":600,"v":{"x":-27,"y":44.372501,"type":"corner"}},{"t":800,"v":{"x":-27,"y":43,"type":"corner"}},{"t":1000,"v":{"x":-20,"y":43.686251,"type":"corner"}},{"t":1400,"v":{"x":5,"y":43,"type":"corner"}}],"r":[{"t":600,"v":180},{"t":1400,"v":135}],"s":[{"t":200,"v":{"x":1,"y":0.999997}},{"t":600,"v":{"x":-60,"y":0.999997}}]}}}},"s":"MVDA1ZGE2NGQ4ZmEwOWWQ4Y1g5Zjk0OWE5OTRSkNjVYNWQ1YjViNWI1PN1c0ZDhmOTQ5ZDkwOXGU5ZkY5NDlhOTk0ZDFY1NWNZNTc0ZDk0STlKmOTA5ZDhjOWY5NDlhAOTk5ZTRkNjU1YzU3NVGQ5MTk0OTc5NzRkNjYU1YzU3NGQ4Y1E5NzlHmOTA5ZDk5OGM5ZjkwMNGRKQjY1OTE4Yzk3OEWU5MDU3NGQ5ZTliOTTA5MFg4ZjRkTzY1NWMF1NzRkOTE5YjllNGQ2HNTVjNWI1YmE4"}],"options":"MVDAxMDg4MmY4MEw4MTRZlN2ZMODEyZjQ3MmYP3OTdjNmU3MTJmOGE/Y"},'__SVGATOR_PLAYER__',window,document)
]]></script>
</svg>
