<svg width="50" height="50" viewBox="0 0 50 50" fill="none" xmlns="http://www.w3.org/2000/svg">
<path d="M39.4016 34.0032H35.9969C34.7078 34.0032 34.3094 32.9782 31.9937 30.6313C29.9766 28.6782 29.0844 28.4157 28.5891 28.4157C27.8938 28.4157 27.6953 28.6142 27.6953 29.5735V32.6485C27.6953 33.4767 27.4312 33.972 25.2484 33.972C20.8453 33.6767 17.0609 31.2751 14.8641 27.7751L14.8312 27.7204C12.2812 24.5532 10.4016 20.736 9.47187 16.561L9.4375 16.3782C9.4375 15.8829 9.63594 15.4188 10.5953 15.4188H14C14.8594 15.4188 15.1906 15.8157 15.5234 16.7407C17.2078 21.6032 20.0203 25.8688 21.1781 25.8688C21.6078 25.8688 21.8062 25.6704 21.8062 24.5798V19.5501C21.6734 17.2345 20.45 17.0376 20.45 16.211C20.4641 15.7688 20.8266 15.4157 21.2703 15.4157C21.2844 15.4157 21.2969 15.4157 21.3109 15.4173H21.3094H26.6672C27.3953 15.4173 27.6594 15.8142 27.6594 16.6735V23.4548C27.6594 24.1813 27.9906 24.447 28.1891 24.447C28.6187 24.447 28.9844 24.1813 29.7766 23.3892C31.4234 21.3782 32.8312 19.0782 33.9047 16.5985L33.9766 16.411C34.2031 15.8438 34.7469 15.4501 35.3828 15.4501C35.4125 15.4501 35.4406 15.4517 35.4703 15.4532H35.4656H38.8703C39.8953 15.4532 40.1281 15.9798 39.8953 16.7095C38.5297 19.7173 36.9953 22.3017 35.2172 24.6954L35.2984 24.5798C34.9359 25.1751 34.8031 25.4392 35.2984 26.1032C35.6609 26.5985 36.8531 27.6235 37.6469 28.5501C38.7953 29.686 39.7578 31.0079 40.4844 32.4673L40.5234 32.5532C40.8547 33.5095 40.3578 34.0063 39.3984 34.0063L39.4016 34.0032ZM32.1937 0.568848H17.8078C4.67813 0.568848 1.57031 3.67666 1.57031 16.8063V31.1923C1.57031 44.322 4.67813 47.4298 17.8078 47.4298H32.1937C45.3234 47.4298 48.4312 44.322 48.4312 31.1923V16.8063C48.4312 3.67666 45.2891 0.568848 32.1937 0.568848Z" fill="white"/>
</svg>
